HIERARCHY
ROOT Hips
{
	OFFSET 0.000000 0.000000 0.000000
	CHANNELS 6 Xposition Yposition Zposition Xrotation Yrotation Zrotation
	JOINT C_ctrl
	{
		OFFSET 0.000000 35.040482 -0.000011
		CHANNELS 3 Xrotation Yrotation Zrotation
		JOINT Bip01
		{
			OFFSET -41.537640 41.789009 -0.000007
			CHANNELS 3 Xrotation Yrotation Zrotation
			JOINT Bip01_Pelvis
			{
				OFFSET -2.462887 0.000000 0.000000
				CHANNELS 3 Xrotation Yrotation Zrotation
				JOINT BN_Tail_01
				{
					OFFSET -11.399368 7.351341 -0.000013
					CHANNELS 3 Xrotation Yrotation Zrotation
					JOINT BN_Tail_02
					{
						OFFSET -11.365196 -0.343025 0.000012
						CHANNELS 3 Xrotation Yrotation Zrotation
						JOINT BN_Tail_03
						{
							OFFSET -15.076256 -0.454979 0.000017
							CHANNELS 3 Xrotation Yrotation Zrotation
							JOINT BN_Tail_04
							{
								OFFSET -17.395691 -0.525002 0.000016
								CHANNELS 3 Xrotation Yrotation Zrotation
								JOINT BN_Tail_05
								{
									OFFSET -16.699837 -0.504005 0.000016
									CHANNELS 3 Xrotation Yrotation Zrotation
									End Site
									{
										OFFSET 0.503998 -16.699829 0.000067
									}
								}
							}
						}
					}
				}
				JOINT Bip01_Spine
				{
					OFFSET 8.297798 5.916809 -0.000020
					CHANNELS 3 Xrotation Yrotation Zrotation
					JOINT Bip01_R_Thigh
					{
						OFFSET -8.297779 -5.916794 10.541781
						CHANNELS 3 Xrotation Yrotation Zrotation
						JOINT Bip01_R_Calf
						{
							OFFSET 5.631542 -22.906792 0.862690
							CHANNELS 3 Xrotation Yrotation Zrotation
							JOINT Bip01_R_HorseLink
							{
								OFFSET -16.984341 -19.231926 -3.555767
								CHANNELS 3 Xrotation Yrotation Zrotation
								JOINT Bip01_R_Foot
								{
									OFFSET 4.290367 -24.783146 0.578056
									CHANNELS 3 Xrotation Yrotation Zrotation
									JOINT Bip01_R_Toe0
									{
										OFFSET 3.561211 -5.815116 0.760802
										CHANNELS 3 Xrotation Yrotation Zrotation
										JOINT Bip01_R_Toe0Nub
										{
											OFFSET 16.135469 0.002017 1.534789
											CHANNELS 3 Xrotation Yrotation Zrotation
											End Site
											{
												OFFSET -0.000002 16.208284 -0.000056
											}
										}
									}
								}
							}
						}
					}
					JOINT Bip01_L_Thigh
					{
						OFFSET -8.297813 -5.916832 -10.541739
						CHANNELS 3 Xrotation Yrotation Zrotation
						JOINT Bip01_L_Calf
						{
							OFFSET 5.631535 -22.906792 -0.862625
							CHANNELS 3 Xrotation Yrotation Zrotation
							JOINT Bip01_L_HorseLink
							{
								OFFSET -16.984318 -19.231949 3.555875
								CHANNELS 3 Xrotation Yrotation Zrotation
								JOINT Bip01_L_Foot
								{
									OFFSET 4.290367 -24.783169 -0.577965
									CHANNELS 3 Xrotation Yrotation Zrotation
									JOINT Bip01_L_Toe0
									{
										OFFSET 3.561245 -5.815111 -0.760799
										CHANNELS 3 Xrotation Yrotation Zrotation
										JOINT Bip01_L_Toe0Nub
										{
											OFFSET 6.574303 -0.000005 -1.538561
											CHANNELS 3 Xrotation Yrotation Zrotation
											End Site
											{
												OFFSET 0.000004 -6.751935 0.000023
											}
										}
									}
								}
							}
						}
					}
					JOINT Bip01_Spine1
					{
						OFFSET 20.556803 -4.626213 -0.000025
						CHANNELS 3 Xrotation Yrotation Zrotation
						JOINT Saddle
						{
							OFFSET 17.608810 18.174690 -0.000143
							CHANNELS 3 Xrotation Yrotation Zrotation
							End Site
							{
								OFFSET -0.000063 -0.000061 -22.448387
							}
						}
						JOINT BN_center
						{
							OFFSET 10.743275 -13.417107 -0.172041
							CHANNELS 3 Xrotation Yrotation Zrotation
							End Site
							{
								OFFSET 22.434088 0.553078 -0.579614
							}
						}
						JOINT Bip01_Spine2
						{
							OFFSET 24.765072 -2.054115 -0.000032
							CHANNELS 3 Xrotation Yrotation Zrotation
							JOINT Handle
							{
								OFFSET 63.735676 16.430748 -16.052464
								CHANNELS 3 Xrotation Yrotation Zrotation
								JOINT IK_Chain01
								{
									OFFSET -4.713058 -6.020439 0.185448
									CHANNELS 3 Xrotation Yrotation Zrotation
									End Site
									{
										OFFSET -0.000023 -0.000023 -7.648071
									}
								}
							}
							JOINT BN_hair04_01
							{
								OFFSET 1.987491 16.256981 -2.049672
								CHANNELS 3 Xrotation Yrotation Zrotation
								JOINT BN_hair04_02
								{
									OFFSET -1.318762 -3.831451 -6.174704
									CHANNELS 3 Xrotation Yrotation Zrotation
									JOINT BN_hair04_03
									{
										OFFSET -0.827490 -5.886627 -5.656666
										CHANNELS 3 Xrotation Yrotation Zrotation
										End Site
										{
											OFFSET -2.658262 5.010620 -5.929780
										}
									}
								}
							}
							JOINT Bip01_Neck
							{
								OFFSET 25.574577 9.433014 -0.000084
								CHANNELS 3 Xrotation Yrotation Zrotation
								JOINT Bip01_R_Clavicle
								{
									OFFSET -16.535652 0.011192 6.705692
									CHANNELS 3 Xrotation Yrotation Zrotation
									JOINT Bip01_R_UpperArm
									{
										OFFSET 20.272621 -12.959984 2.510816
										CHANNELS 3 Xrotation Yrotation Zrotation
										JOINT Bip01_R_Forearm
										{
											OFFSET -13.633509 -15.503704 -0.653585
											CHANNELS 3 Xrotation Yrotation Zrotation
											JOINT Bip01_R_Hand
											{
												OFFSET 2.580030 -27.804676 -1.136415
												CHANNELS 3 Xrotation Yrotation Zrotation
												JOINT Bip01_R_Finger0
												{
													OFFSET -0.281744 -19.659061 -0.398649
													CHANNELS 3 Xrotation Yrotation Zrotation
													JOINT Bip01_Xtra02
													{
														OFFSET 4.152210 -5.712314 0.433813
														CHANNELS 3 Xrotation Yrotation Zrotation
														JOINT Bip01_Xtra02Nub
														{
															OFFSET 15.457960 0.041654 0.507982
															CHANNELS 3 Xrotation Yrotation Zrotation
															End Site
															{
																OFFSET -15.421730 -0.157725 -1.163459
															}
														}
													}
													JOINT Bip01_R_Finger0Nub
													{
														OFFSET 8.362326 -9.718440 -0.143142
														CHANNELS 3 Xrotation Yrotation Zrotation
														End Site
														{
															OFFSET -1.213036 -0.198171 9.872291
														}
													}
												}
											}
										}
									}
								}
								JOINT Bip01_L_Clavicle
								{
									OFFSET -16.535673 0.011162 -6.705583
									CHANNELS 3 Xrotation Yrotation Zrotation
									JOINT Bip01_L_UpperArm
									{
										OFFSET 20.272615 -12.959999 -2.510836
										CHANNELS 3 Xrotation Yrotation Zrotation
										JOINT Bip01_L_Forearm
										{
											OFFSET -13.633495 -15.503681 0.653678
											CHANNELS 3 Xrotation Yrotation Zrotation
											JOINT Bip01_L_Hand
											{
												OFFSET 2.579988 -27.804686 1.136487
												CHANNELS 3 Xrotation Yrotation Zrotation
												JOINT Bip01_L_Finger0
												{
													OFFSET -0.281765 -19.659058 0.398696
													CHANNELS 3 Xrotation Yrotation Zrotation
													JOINT Bip01_Xtra01
													{
														OFFSET 4.083549 -5.738758 -0.666714
														CHANNELS 3 Xrotation Yrotation Zrotation
														JOINT Bip01_Xtra01Nub
														{
															OFFSET 6.758158 -0.395525 -0.023239
															CHANNELS 3 Xrotation Yrotation Zrotation
															End Site
															{
																OFFSET 6.764923 -0.254147 -0.029908
															}
														}
													}
													JOINT Bip01_L_Finger0Nub
													{
														OFFSET -0.012636 -9.629153 0.045740
														CHANNELS 3 Xrotation Yrotation Zrotation
														End Site
														{
															OFFSET 0.988407 0.004791 8.293357
														}
													}
												}
											}
										}
									}
								}
								JOINT BN_hair03_01
								{
									OFFSET -5.894140 16.270622 -2.498433
									CHANNELS 3 Xrotation Yrotation Zrotation
									JOINT BN_hair03_02
									{
										OFFSET -0.189278 -7.800507 -6.219162
										CHANNELS 3 Xrotation Yrotation Zrotation
										JOINT BN_hair03_03
										{
											OFFSET 0.612345 -10.844475 -3.370718
											CHANNELS 3 Xrotation Yrotation Zrotation
											End Site
											{
												OFFSET -2.273296 2.862007 -10.769416
											}
										}
									}
								}
								JOINT Bip01_Neck1
								{
									OFFSET 9.383755 11.908699 -0.000007
									CHANNELS 3 Xrotation Yrotation Zrotation
									JOINT BN_hair02_01
									{
										OFFSET 9.126320 18.808022 -1.420810
										CHANNELS 3 Xrotation Yrotation Zrotation
										JOINT BN_hair02_02
										{
											OFFSET 0.393478 -5.181091 -5.248574
											CHANNELS 3 Xrotation Yrotation Zrotation
											JOINT BN_hair02_03
											{
												OFFSET 0.762280 -8.167076 -0.230047
												CHANNELS 3 Xrotation Yrotation Zrotation
												End Site
												{
													OFFSET -0.025837 -1.251419 -8.109770
												}
											}
										}
									}
									JOINT Bip01_Head
									{
										OFFSET 14.266129 10.475403 -0.000008
										CHANNELS 3 Xrotation Yrotation Zrotation
										JOINT BN_Reins_01
										{
											OFFSET 18.547455 -15.740112 -0.000035
											CHANNELS 3 Xrotation Yrotation Zrotation
											JOINT BN_Reins_02
											{
												OFFSET -5.372810 -5.884506 0.000028
												CHANNELS 3 Xrotation Yrotation Zrotation
												JOINT BN_Reins_03
												{
													OFFSET -6.395866 -15.947449 0.000070
													CHANNELS 3 Xrotation Yrotation Zrotation
													JOINT BN_Halter_R_01
													{
														OFFSET -1.234055 -3.096100 7.096737
														CHANNELS 3 Xrotation Yrotation Zrotation
														End Site
														{
															OFFSET 10.514435 -4.176861 -0.000004
														}
													}
													JOINT BN_Halter_L_01
													{
														OFFSET -1.234062 -3.096146 -7.096726
														CHANNELS 3 Xrotation Yrotation Zrotation
														End Site
														{
															OFFSET -10.514435 4.176865 -0.000000
														}
													}
													JOINT BN_Reins_04
													{
														OFFSET -6.737644 -16.971684 0.000074
														CHANNELS 3 Xrotation Yrotation Zrotation
														JOINT BN_Halter_R_02
														{
															OFFSET -4.688869 -11.781956 7.096771
															CHANNELS 3 Xrotation Yrotation Zrotation
															End Site
															{
																OFFSET 14.669624 -5.827511 -0.000006
															}
														}
														JOINT BN_Halter_L_02
														{
															OFFSET -4.688892 -11.782017 -7.096693
															CHANNELS 3 Xrotation Yrotation Zrotation
															End Site
															{
																OFFSET -14.669624 5.827507 -0.000002
															}
														}
														JOINT BN_Reins_05
														{
															OFFSET -6.822578 -16.971161 0.000074
															CHANNELS 3 Xrotation Yrotation Zrotation
															JOINT BN_Reins_06
															{
																OFFSET -6.140354 -15.095148 0.000066
																CHANNELS 3 Xrotation Yrotation Zrotation
																End Site
																{
																	OFFSET -15.095150 6.140352 -0.000002
																}
															}
														}
													}
												}
											}
										}
										JOINT BN_hair01_01
										{
											OFFSET 8.957344 8.870956 0.112121
											CHANNELS 3 Xrotation Yrotation Zrotation
											JOINT BN_hair01_02
											{
												OFFSET 6.002075 -2.962952 -3.121264
												CHANNELS 3 Xrotation Yrotation Zrotation
												End Site
												{
													OFFSET 5.917702 3.813591 -2.232396
												}
											}
										}
										JOINT BN_Eyebrow_R
										{
											OFFSET 11.795959 -0.430496 4.449781
											CHANNELS 3 Xrotation Yrotation Zrotation
											JOINT Bip01_Xtra06Nub
											{
												OFFSET 2.936661 -0.262573 3.246701
												CHANNELS 3 Xrotation Yrotation Zrotation
												End Site
												{
													OFFSET 2.768745 0.208199 3.394807
												}
											}
										}
										JOINT BN_Eyebrow_L
										{
											OFFSET 11.586395 -0.445618 -4.441728
											CHANNELS 3 Xrotation Yrotation Zrotation
											JOINT Bip01_Xtra05Nub
											{
												OFFSET 3.244698 -0.349442 -4.416700
												CHANNELS 3 Xrotation Yrotation Zrotation
												End Site
												{
													OFFSET 3.053162 0.072495 -4.564033
												}
											}
										}
										JOINT Bip01_R_Ear_01
										{
											OFFSET 7.142960 7.567184 4.311657
											CHANNELS 3 Xrotation Yrotation Zrotation
											JOINT Bip01_Xtra04Nub
											{
												OFFSET 9.464531 9.264214 1.682953
												CHANNELS 3 Xrotation Yrotation Zrotation
												End Site
												{
													OFFSET 8.448181 10.159340 1.910823
												}
											}
										}
										JOINT Bip01__L_Ear_01
										{
											OFFSET 7.214943 7.717056 -4.356771
											CHANNELS 3 Xrotation Yrotation Zrotation
											JOINT Bip01_Xtra03Nub
											{
												OFFSET 9.230225 8.944366 -2.322746
												CHANNELS 3 Xrotation Yrotation Zrotation
												End Site
												{
													OFFSET 8.170288 9.841324 -2.643566
												}
											}
										}
										JOINT Bip01_Jaw
										{
											OFFSET 9.196068 -4.110695 -0.000013
											CHANNELS 3 Xrotation Yrotation Zrotation
											JOINT Bip01_Ponytail1Nub
											{
												OFFSET 10.976463 -21.082108 -0.000053
												CHANNELS 3 Xrotation Yrotation Zrotation
												End Site
												{
													OFFSET 11.247093 -20.938980 0.000113
												}
											}
										}
										JOINT Bip01_HeadNub
										{
											OFFSET 29.954575 -18.249489 -0.000063
											CHANNELS 3 Xrotation Yrotation Zrotation
											End Site
											{
												OFFSET -9.198448 -13.366348 0.000168
											}
										}
									}
								}
							}
						}
					}
				}
			}
		}
	}
}
MOTION
Frames: 4
Frame Time: 0.033333
0.000000 0.000000 0.000000 0.000008 0.000000 -0.000000 -0.000000 0.000000 -0.000000 -0.030585 -1.999750 -0.876418 0.000001 0.000002 -0.000002 2.490268 -2.052177 38.057336 0.125331 -0.320524 23.184167 -0.266063 0.675144 18.337362 -0.252229 1.431111 8.409084 -0.079414 1.794872 0.350643 0.191206 0.992634 4.706414 -0.552458 11.330468 1.500836 0.711196 0.016558 -3.604274 1.817273 -0.046698 -9.218005 0.004128 -10.441176 7.765094 -0.000085 -0.000042 0.000141 -0.005326 0.004383 -0.000048 -1.482133 -9.974718 -5.465469 0.136596 0.008314 0.693253 -2.612246 0.159992 -13.284904 0.326815 11.284101 14.326335 -0.000068 0.000033 -0.000008 0.008765 -0.000458 0.038596 0.117471 0.983608 -3.265316 0.917523 -0.020778 6.784391 -0.003569 -0.188671 0.020278 0.048097 0.968910 -2.736216 0.000078 -0.000112 -0.000057 -0.000052 -0.014928 0.015042 2.595164 0.485599 -0.875025 2.161407 0.325051 -0.696865 5.506186 0.835855 -1.789430 1.648850 -1.257826 -5.211785 0.132692 1.715936 6.342587 -5.505354 -4.794056 7.345401 0.012086 0.173951 -4.252410 7.829484 2.443421 -0.224799 -4.306971 4.318161 -2.306024 -0.000049 0.000294 -0.000055 -0.781878 0.140333 -0.478808 -0.804181 0.123494 -0.482651 -3.307241 0.807378 4.946038 4.735404 -0.547643 5.772569 -0.000520 -0.014287 -0.348822 -6.486046 2.306007 -1.750942 2.568088 -5.572009 -1.497996 -0.000039 -0.000347 -0.000040 0.028251 0.072122 2.451927 -0.000913 0.100591 2.451955 3.753881 0.408901 -0.665031 0.179491 0.042809 -0.038725 0.361686 0.052199 -0.140819 -2.155520 1.229647 -6.811145 4.517510 0.450489 -0.104781 0.030691 0.002140 0.030425 1.110126 0.091443 -0.096981 -0.537015 0.201364 -5.652345 0.000007 0.000338 33.332771 -0.436029 -0.455306 -72.560399 -0.000041 -0.000050 -22.034720 0.000020 -0.000008 -0.026807 0.000030 0.000054 0.012759 -0.000102 -0.000107 -34.700694 0.000025 -0.000010 0.015166 0.000022 -0.000019 0.012723 -0.000054 -0.000082 -24.263830 0.000017 0.000041 -0.000003 1.146990 2.856925 2.039553 0.762611 -0.149617 1.570775 -12.812590 -1.803899 -16.138899 0.024201 -0.030050 11.786614 9.657030 0.979747 -14.661860 0.023221 -0.032309 11.715997 0.000038 -0.000036 0.000046 0.039087 0.011722 11.754808 -0.000021 0.000000 0.000015 0.050166 0.014758 11.743128 -0.000053 0.000039 -0.000026 -0.004494 -0.052570 11.750645 0.000056 -0.000026 11.750669 
0.000000 0.000000 0.000000 0.000008 0.000000 -0.000000 -0.000000 0.000000 -0.000000 -0.030585 -1.999750 -0.876418 0.000001 0.000002 -0.000002 2.511148 -2.069535 38.019818 0.127538 -0.393628 23.184608 -0.218468 0.601334 18.338402 -0.251332 1.401509 8.413271 -0.080162 1.819613 0.364201 0.191206 0.992497 4.705891 -0.546926 11.340626 1.489797 0.706304 0.016601 -3.579392 1.820176 -0.047010 -9.232774 0.004193 -10.451567 7.765164 -0.000085 -0.000041 0.000141 -0.005326 0.004382 -0.000048 -1.489966 -9.994971 -5.479071 0.142429 0.008710 0.722721 -2.614967 0.160485 -13.298861 0.325759 11.300787 14.324577 -0.000068 0.000034 -0.000008 0.008765 -0.000456 0.038596 0.117314 0.982916 -3.265315 0.917524 -0.020778 6.784389 0.032201 -0.187876 0.019471 0.048095 0.968882 -2.731815 0.000078 -0.000112 -0.000057 -0.000052 -0.014928 0.015042 2.575186 0.482704 -0.868630 2.096908 0.314277 -0.675525 5.514709 0.835496 -1.790371 1.647902 -1.250551 -5.210455 0.130105 1.704305 6.315501 -5.499282 -4.789197 7.361160 0.012050 0.173618 -4.244220 7.820526 2.382137 -0.206452 -4.306970 4.318162 -2.306024 -0.000086 0.000294 -0.000055 -0.781905 0.140333 -0.478810 -0.804181 0.123494 -0.482651 -3.312014 0.798553 4.944866 4.737108 -0.549519 5.795911 -0.000556 -0.015585 -0.380191 -6.489805 2.306566 -1.733316 2.568088 -5.572010 -1.497996 -0.000039 -0.000347 -0.000040 0.028279 0.072123 2.451926 -0.000913 0.100590 2.451955 3.724437 0.406053 -0.659969 0.188269 0.042005 -0.037980 0.389964 0.054155 -0.139298 -2.151529 1.226501 -6.783553 4.476725 0.446742 -0.103747 0.031149 -0.001930 0.034482 1.094723 0.089910 -0.083898 -0.544192 0.179513 -5.699796 -0.000004 0.000313 33.153656 -0.428913 -0.450890 -72.283687 -0.000041 -0.000051 -22.084406 0.000020 -0.000008 -0.026807 0.000021 0.000057 0.012769 -0.000095 -0.000110 -34.771120 0.000025 -0.000010 0.015161 0.000022 -0.000019 0.012716 -0.000062 -0.000079 -24.310745 0.000007 0.000045 0.000003 1.139613 2.858413 2.037715 0.755309 -0.146543 1.553674 -12.812592 -1.803895 -16.138895 0.024217 -0.030043 11.786637 9.657027 0.979749 -14.661858 0.023231 -0.032303 11.715977 0.000036 -0.000036 0.000047 0.039099 0.011744 11.754802 -0.000021 0.000001 0.000022 0.050178 0.014781 11.743120 -0.024840 0.035580 0.054578 -0.004476 -0.052591 11.750646 0.000056 -0.000027 11.750674 
0.000000 0.000000 0.000000 0.000008 0.000000 -0.000000 -0.000000 0.000000 -0.000000 -0.030585 -1.999750 -0.876418 0.000001 0.000002 -0.000002 2.517745 -2.076297 37.980049 0.129902 -0.471909 23.192817 -0.200442 0.494186 18.333799 -0.249769 1.349897 8.431157 -0.080896 1.843889 0.377458 0.191206 0.992224 4.708766 -0.537017 11.345562 1.474498 0.701067 0.016643 -3.552836 1.823001 -0.047297 -9.247276 0.004277 -10.461751 7.765238 -0.000085 -0.000042 0.000141 -0.005326 0.004381 -0.000048 -1.498373 -10.011870 -5.496534 0.148111 0.009095 0.751627 -2.617627 0.160959 -13.312548 0.324709 11.317149 14.322849 -0.000068 0.000034 -0.000008 0.008765 -0.000458 0.038596 0.117157 0.982223 -3.265311 0.917524 -0.020778 6.784391 0.067271 -0.187112 0.018725 0.048095 0.968882 -2.729578 0.000078 -0.000113 -0.000056 -0.000052 -0.014928 0.015042 2.555599 0.479874 -0.862347 2.033669 0.303669 -0.654607 5.523040 0.835138 -1.791285 1.646973 -1.243416 -5.209117 0.127003 1.690897 6.284498 -5.492496 -4.784507 7.385944 0.012070 0.173760 -4.247809 7.811755 2.322014 -0.188465 -4.306971 4.318162 -2.306024 0.000244 0.000423 -0.000029 -0.781932 0.140333 -0.478812 -0.804181 0.123494 -0.482651 -3.316689 0.789893 4.943710 4.739303 -0.550849 5.828084 -0.000653 -0.017664 -0.431235 -6.494445 2.306592 -1.704981 2.568089 -5.572010 -1.497996 -0.000045 -0.000314 -0.000024 0.028306 0.072123 2.451926 -0.000914 0.100591 2.451956 3.695578 0.403270 -0.654967 0.196860 0.041214 -0.037248 0.417696 0.056079 -0.137814 -2.147602 1.223406 -6.756523 4.436773 0.443073 -0.102703 0.031589 -0.005905 0.038443 1.079627 0.088401 -0.071073 -0.551238 0.158081 -5.746323 -0.000004 0.000312 32.952852 -0.420655 -0.445755 -71.978145 -0.000041 -0.000051 -22.133097 0.000020 -0.000008 -0.026803 0.000021 0.000057 0.012718 -0.000095 -0.000111 -34.850046 0.000025 -0.000010 0.015165 0.000022 -0.000019 0.012723 -0.000062 -0.000079 -24.363437 0.000033 0.000035 -0.000051 1.132369 2.859883 2.035907 0.748157 -0.143519 1.536920 -12.812593 -1.803905 -16.138892 0.024228 -0.030035 11.786653 9.657026 0.979750 -14.661853 0.023246 -0.032298 11.715954 0.000037 -0.000036 0.000052 0.039112 0.011768 11.754809 -0.000021 0.000001 0.000024 0.050191 0.014807 11.743114 -0.049171 0.070426 0.108154 -0.004459 -0.052612 11.750646 0.000056 -0.000026 11.750677 
0.000000 0.000000 0.000000 0.000008 0.000000 -0.000000 -0.000000 0.000000 -0.000000 -0.030585 -1.999750 -0.876418 0.000001 0.000002 -0.000002 2.511171 -2.073146 37.937070 0.132289 -0.550958 23.201058 -0.159569 0.381497 18.328975 -0.247522 1.275646 8.435317 -0.081637 1.868413 0.390880 0.191206 0.991869 4.714830 -0.533394 11.355449 1.452942 0.695395 0.016682 -3.524133 1.826161 -0.047647 -9.263282 0.004054 -10.469560 7.765234 -0.000085 -0.000041 0.000141 -0.005326 0.004382 -0.000048 -1.506267 -10.027431 -5.518238 0.153861 0.009488 0.780808 -2.620318 0.161443 -13.326397 0.323680 11.333687 14.321092 -0.000068 0.000034 -0.000008 0.008765 -0.000456 0.038596 0.116995 0.981503 -3.265312 0.917523 -0.020778 6.784391 0.102690 -0.186313 0.017919 0.048097 0.968910 -2.730317 0.000078 -0.000112 -0.000056 -0.000052 -0.014927 0.015042 2.535806 0.477012 -0.855993 1.969809 0.292948 -0.633501 5.531461 0.834770 -1.792208 1.646034 -1.236210 -5.207807 0.123849 1.677339 6.253192 -5.484746 -4.779762 7.419940 0.012136 0.174367 -4.262692 7.802918 2.261322 -0.170307 -4.306971 4.318162 -2.306024 0.000081 0.000436 -0.000056 -0.781986 0.140333 -0.478816 -0.804181 0.123494 -0.482651 -3.321422 0.781136 4.942565 4.741805 -0.551979 5.869464 -0.000776 -0.020564 -0.502124 -6.500077 2.306119 -1.665809 2.568089 -5.572012 -1.497996 -0.000045 -0.000314 -0.000024 0.028360 0.072123 2.451925 -0.000914 0.100591 2.451955 3.666444 0.400460 -0.649947 0.205546 0.040419 -0.036509 0.445704 0.058024 -0.136296 -2.143847 1.220446 -6.720271 4.396408 0.439351 -0.101705 0.032043 -0.009937 0.042463 1.064388 0.086871 -0.058120 -0.558530 0.132078 -5.799336 0.000007 0.000337 32.743520 -0.411306 -0.439584 -71.660186 -0.000042 -0.000050 -22.183551 0.000020 -0.000008 -0.026805 0.000021 0.000058 0.012716 -0.000095 -0.000111 -34.929772 0.000025 -0.000010 0.015168 0.000022 -0.000019 0.012723 -0.000037 -0.000089 -24.416697 0.000033 0.000035 -0.000050 1.125052 2.861370 2.034088 0.740919 -0.140459 1.519972 -12.812591 -1.803896 -16.138897 0.024262 -0.030023 11.786695 9.657027 0.979751 -14.661860 0.023272 -0.032286 11.715905 0.000037 -0.000036 0.000047 0.039137 0.011817 11.754818 -0.000019 0.000001 0.000019 0.050217 0.014853 11.743089 -0.073777 0.105594 0.162259 -0.004424 -0.052654 11.750645 0.000056 -0.000026 11.750671 
